<?xml version="1.0" standalone="no"?><!DOCTYPE svg PUBLIC "-//W3C//DTD SVG 1.1//EN" "http://www.w3.org/Graphics/SVG/1.1/DTD/svg11.dtd"><svg t="1522326477445" class="icon" style="" viewBox="0 0 1024 1024" version="1.1" xmlns="http://www.w3.org/2000/svg" p-id="8171" xmlns:xlink="http://www.w3.org/1999/xlink" width="200" height="200"><defs><style type="text/css"></style></defs><path d="M280.279986 545.960463c18.720364 0 33.893948-15.211447 33.893948-33.960463 0-18.729573-15.173584-33.930787-33.893948-33.930787-18.796088 0-33.969673 15.201214-33.969673 33.930787C246.310314 530.747993 261.483898 545.960463 280.279986 545.960463L280.279986 545.960463 280.279986 545.960463zM280.279986 545.960463" p-id="8172"></path><path d="M432.224584 545.960463c18.777669 0 33.951253-15.211447 33.951253-33.960463 0-18.729573-15.173584-33.930787-33.951253-33.930787-18.758226 0-33.951253 15.201214-33.951253 33.930787C398.273331 530.747993 413.466358 545.960463 432.224584 545.960463L432.224584 545.960463 432.224584 545.960463zM432.224584 545.960463" p-id="8173"></path><path d="M584.225463 545.960463c18.758226 0 33.93181-15.211447 33.93181-33.960463 0-18.729573-15.173584-33.930787-33.93181-33.930787-18.777669 0-33.951253 15.201214-33.951253 33.930787C550.27421 530.747993 565.447794 545.960463 584.225463 545.960463L584.225463 545.960463 584.225463 545.960463zM584.225463 545.960463" p-id="8174"></path><path d="M767.256056 256.733199 97.192088 256.733199c0 0-31.902594 0-31.902594 31.921014l0 446.708971c0 31.902594 31.902594 31.902594 31.902594 31.902594l95.688339 0 0 159.53139 159.587672-159.53139 414.787958 0c0 0 31.921014 0 31.921014-31.902594L799.17707 288.655236C799.178093 256.733199 767.256056 256.733199 767.256056 256.733199L767.256056 256.733199 767.256056 256.733199zM753.220389 721.319329 326.028936 721.319329l-18.682501 18.691711-68.470441 68.489884 0-87.180572-127.647215 0L111.228779 302.690904l641.992633 0 0 400.75229 0 0L753.221412 721.319329zM735.353462 703.443194" p-id="8175"></path><path d="M926.805866 97.202832 256.74292 97.202832c0 0-31.921014 0-31.921014 31.902594l0 95.726202 45.956681 0 0-81.681324L912.751778 143.150304l0 418.629449-81.690534 0 0 45.956681 95.744621 0c0 0 31.902594 0 31.902594-31.922037L958.70846 129.104403C958.70846 97.202832 926.805866 97.202832 926.805866 97.202832L926.805866 97.202832 926.805866 97.202832zM926.805866 97.202832" p-id="8176"></path></svg>